<svg id="Layer_1" data-name="Layer 1" xmlns="http://www.w3.org/2000/svg" xmlns:xlink="http://www.w3.org/1999/xlink" viewBox="0 0 153 16"><defs><style>.cls-1{fill:none;}.cls-2{clip-path:url(#clip-path);}.cls-3{fill:#6ebe49;}</style><clipPath id="clip-path"><rect class="cls-1" width="153" height="16"/></clipPath></defs><g class="cls-2"><path class="cls-3" d="M111.63,5a4,4,0,0,0-4.24-3.28c-3.65,0-5.21,3-5.21,6.18,0,3.5,1.56,6.4,5.21,6.4,2.68,0,4.24-1.86,4.39-4.39h2c-.38,3.79-2.76,6.1-6.63,6.1-4.76,0-7.07-3.5-7.07-8s2.53-8,7.22-8c3.2,0,5.81,1.71,6.33,5Z"/><path class="cls-3" d="M115.65.37h1.78V15.63h-1.78Z"/><path class="cls-3" d="M124.5,4.32c3.5,0,5.36,2.53,5.36,5.8s-1.86,5.81-5.36,5.81-5.36-2.53-5.36-5.81S121,4.32,124.5,4.32Zm0,10c1.94,0,3.43-1.49,3.43-4.17S126.36,6,124.5,6s-3.42,1.49-3.42,4.17S122.57,14.29,124.5,14.29Z"/><path class="cls-3" d="M140.65,15.63h-1.71V13.84h-.07a3.87,3.87,0,0,1-3.58,2c-2.9,0-3.79-1.64-3.79-4V4.54h1.78v7.52a2.11,2.11,0,0,0,2.24,2.23c2.23,0,3.27-1.49,3.27-3.5V4.54h1.79V15.63Z"/><path class="cls-3" d="M152.71,15.63h-1.79V14.14h-.07a3.78,3.78,0,0,1-3.5,1.79c-3.42,0-5.06-2.68-5.06-5.81s1.64-5.73,5.06-5.73a4.35,4.35,0,0,1,3.57,1.71H151V.45h1.78V15.63Zm-5.14-1.34c2.46,0,3.35-2.09,3.35-4.17S150,6,147.42,6s-3.35,2.09-3.35,4.32C144.15,12.28,145.27,14.29,147.57,14.29Z"/><path class="cls-3" d="M88.93,6.47v3.2H73.08v2.61H89.15V15.7H68.91V.6H89.15V4H73.08V6.47Z"/><path class="cls-3" d="M19.13,12.2v3.5H0V.6H4.32V12.2Z"/><path class="cls-3" d="M35.57.6H41V.67l-10.27,9v6H26.42v-6l-10.2-9V.6H22L28.8,6.7Z"/><path class="cls-3" d="M56.71,15.63H51.42L41,.6h5.21l8,11.83L62.14.6h5Z"/><path class="cls-3" d="M93.1,1h-1v2.6h-.52V1h-1V.6H93V1ZM97,3.57h-.52V1h0l-1,2.53h-.29L94.29,1h0V3.57h-.52v-3h.74l.89,2.31L96.3.52H97Z"/></g></svg>