<svg xmlns="http://www.w3.org/2000/svg" xmlns:xlink="http://www.w3.org/1999/xlink" width="153" height="16" viewBox="0 0 153 16">
  <defs>
    <clipPath id="clip-Lyve-Cloud-Logo-Horiz-153x16">
      <rect width="153" height="16"/>
    </clipPath>
  </defs>
  <g id="Lyve-Cloud-Logo-Horiz-153x16" clip-path="url(#clip-Lyve-Cloud-Logo-Horiz-153x16)">
    <g id="Lyve-Cloud-Logo-Horiz-h16">
      <g id="Lyve-Cloud-Logo-Horiz-2-CLR" transform="translate(-68 -40.4)">
        <g id="Group_2" data-name="Group 2" transform="translate(168.093 40.4)">
          <g id="Group_1" data-name="Group 1">
            <path id="Path_1" data-name="Path 1" d="M214.035,45.386a4.041,4.041,0,0,0-4.242-3.274c-3.646,0-5.209,2.977-5.209,6.177,0,3.5,1.563,6.4,5.209,6.4,2.679,0,4.242-1.86,4.391-4.391h2.009c-.372,3.8-2.753,6.1-6.623,6.1-4.763,0-7.07-3.5-7.07-7.963s2.53-8.037,7.219-8.037c3.2,0,5.8,1.712,6.326,4.986Z" transform="translate(-202.5 -40.4)" fill="#fff"/>
            <path id="Path_2" data-name="Path 2" d="M223.4,40.9h1.786V56.156H223.4Z" transform="translate(-207.847 -40.528)" fill="#fff"/>
            <path id="Path_3" data-name="Path 3" d="M233.458,46.2c3.5,0,5.358,2.53,5.358,5.8,0,3.2-1.86,5.8-5.358,5.8S228.1,55.279,228.1,52C228.1,48.8,229.96,46.2,233.458,46.2Zm0,9.972c1.935,0,3.423-1.488,3.423-4.167s-1.563-4.167-3.423-4.167-3.423,1.488-3.423,4.167S231.523,56.172,233.458,56.172Z" transform="translate(-209.049 -41.884)" fill="#fff"/>
            <path id="Path_4" data-name="Path 4" d="M253.853,57.588h-1.712V55.8h-.074a3.863,3.863,0,0,1-3.572,2.009c-2.9,0-3.8-1.637-3.8-4.019V46.5h1.786v7.516a2.109,2.109,0,0,0,2.233,2.233c2.233,0,3.274-1.488,3.274-3.5V46.5h1.786V57.588Z" transform="translate(-213.295 -41.96)" fill="#fff"/>
            <path id="Path_5" data-name="Path 5" d="M269.619,56.181h-1.786V54.693h-.074a3.774,3.774,0,0,1-3.5,1.786c-3.423,0-5.06-2.679-5.06-5.8s1.637-5.73,5.06-5.73a4.347,4.347,0,0,1,3.572,1.712h.074V41h1.786V56.181Zm-5.135-1.34c2.456,0,3.349-2.084,3.349-4.167,0-2.158-.967-4.167-3.5-4.167-2.456,0-3.349,2.084-3.349,4.316C261.06,52.833,262.177,54.842,264.484,54.842Z" transform="translate(-217.005 -40.553)" fill="#fff"/>
          </g>
        </g>
        <g id="Group_7" data-name="Group 7" transform="translate(68 40.921)">
          <g id="Group_6" data-name="Group 6" transform="translate(0 0)">
            <g id="Group_5" data-name="Group 5">
              <g id="Group_3" data-name="Group 3" transform="translate(0 0.074)">
                <path id="Path_6" data-name="Path 6" d="M180.619,47.079v3.2H164.767v2.6h16.074v3.423H160.6V41.2h20.242v3.423H164.767v2.456Z" transform="translate(-91.688 -41.2)" fill="#6ebe49"/>
                <path id="Path_7" data-name="Path 7" d="M87.126,52.809v3.5H68V41.2h4.316V52.809Z" transform="translate(-68 -41.2)" fill="#6ebe49"/>
                <path id="Path_8" data-name="Path 8" d="M109.149,41.2h5.433v.074l-10.27,9v5.953H100V50.279l-10.2-9V41.2h5.73l6.847,6.1Z" transform="translate(-73.577 -41.2)" fill="#6ebe49"/>
                <path id="Path_9" data-name="Path 9" d="M138.8,56.233h-5.284L123.1,41.2h5.209l7.963,11.833L144.235,41.2h4.986Z" transform="translate(-82.095 -41.2)" fill="#6ebe49"/>
              </g>
              <g id="Group_4" data-name="Group 4" transform="translate(90.642)">
                <path id="Path_10" data-name="Path 10" d="M192.256,41.547h-.967v2.6h-.521v-2.6H189.8v-.372h2.381v.372Zm3.944,2.6h-.521v-2.53h0l-.967,2.53h-.3l-.967-2.53h0v2.53h-.521V41.1h.744l.893,2.307.893-2.307h.744Z" transform="translate(-189.8 -41.1)" fill="#6ebe49"/>
              </g>
            </g>
          </g>
        </g>
      </g>
    </g>
  </g>
</svg>
